<svg width="272" height="96" viewBox="0 0 272 96" fill="none" xmlns="http://www.w3.org/2000/svg">
<rect x="69.1367" y="27.1609" width="18.1072" height="37.0375" rx="3.73903" fill="#00AAFF"/>
<circle cx="78.1903" cy="13.9919" r="9.05362" fill="#00AAFF"/>
<path d="M46.7046 30.9636C50.8923 30.9636 54.13 32.2238 56.4178 34.7442C58.7443 37.2646 59.9075 40.6768 59.9075 44.9808V64H47.0536V46.6094C47.0536 45.2135 46.6271 44.1278 45.774 43.3523C44.9597 42.538 43.8546 42.1308 42.4587 42.1308C41.0241 42.1308 39.8996 42.538 39.0853 43.3523C38.271 44.1278 37.8639 45.2135 37.8639 46.6094V64H25.0099V46.6094C25.0099 45.2135 24.5834 44.1278 23.7304 43.3523C22.9161 42.538 21.811 42.1308 20.4151 42.1308C18.9804 42.1308 17.8559 42.538 17.0417 43.3523C16.2274 44.1278 15.8202 45.2135 15.8202 46.6094V64H2.90813V31.1963H15.8202V35.6166C16.7508 34.2207 18.011 33.0962 19.6008 32.2432C21.2294 31.3901 23.1293 30.9636 25.3008 30.9636C27.666 30.9636 29.7599 31.4871 31.5823 32.534C33.4047 33.5422 34.8588 34.9768 35.9445 36.838C37.1465 35.1319 38.6782 33.736 40.5394 32.6503C42.4006 31.5259 44.4557 30.9636 46.7046 30.9636ZM120.015 30.9636C123.776 30.9636 126.704 32.2238 128.798 34.7442C130.93 37.2646 131.996 40.6768 131.996 44.9808V64H119.143V46.6094C119.143 45.0584 118.716 43.8369 117.863 42.9451C117.049 42.0145 115.944 41.5492 114.548 41.5492C113.113 41.5492 111.989 42.0145 111.174 42.9451C110.36 43.8369 109.953 45.0584 109.953 46.6094V64H97.0407V31.1963H109.953V36.1983C110.961 34.6473 112.299 33.3871 113.966 32.4177C115.672 31.4483 117.688 30.9636 120.015 30.9636ZM139.631 47.5981C139.631 44.1472 140.213 41.1615 141.376 38.6411C142.578 36.0819 144.207 34.1432 146.262 32.8248C148.317 31.4677 150.624 30.7891 153.183 30.7891C155.316 30.7891 157.138 31.235 158.65 32.1269C160.201 32.9799 161.384 34.1626 162.198 35.6748V20.9596H175.11V64H162.198V59.5215C161.384 61.0337 160.201 62.2357 158.65 63.1276C157.138 63.9806 155.316 64.4071 153.183 64.4071C150.624 64.4071 148.317 63.748 146.262 62.4296C144.207 61.0725 142.578 59.1337 141.376 56.6133C140.213 54.0542 139.631 51.0491 139.631 47.5981ZM162.257 47.5981C162.257 45.8533 161.811 44.4961 160.919 43.5267C160.027 42.5574 158.883 42.0727 157.487 42.0727C156.091 42.0727 154.947 42.5574 154.056 43.5267C153.164 44.4961 152.718 45.8533 152.718 47.5981C152.718 49.343 153.164 50.7001 154.056 51.6695C154.947 52.6389 156.091 53.1236 157.487 53.1236C158.883 53.1236 160.027 52.6389 160.919 51.6695C161.811 50.7001 162.257 49.343 162.257 47.5981ZM203.592 28.8698C202.894 28.7922 202.409 28.7534 202.138 28.7534C201.169 28.7534 200.432 28.9473 199.928 29.3351C199.424 29.684 199.075 30.3044 198.881 31.1963H203.592V41.9564H198.764V64H185.852V41.9564H182.363V31.1963H185.852C185.93 26.931 187.268 23.6351 189.866 21.3086C192.502 18.9433 196.186 17.7607 200.916 17.7607C201.459 17.7607 202.351 17.7995 203.592 17.877V28.8698ZM245.572 31.1963V64H232.66V58.998C231.652 60.549 230.294 61.8092 228.588 62.7786C226.921 63.748 224.924 64.2327 222.598 64.2327C218.836 64.2327 215.889 62.9725 213.757 60.4521C211.663 57.9317 210.616 54.5195 210.616 50.2155V31.1963H223.47V48.5869C223.47 50.1379 223.877 51.3787 224.691 52.3093C225.544 53.2011 226.669 53.647 228.065 53.647C229.499 53.647 230.624 53.2011 231.438 52.3093C232.253 51.3787 232.66 50.1379 232.66 48.5869V31.1963H245.572ZM268.096 20.9596V64H255.184V20.9596H268.096Z" fill="white"/>
<path d="M218.089 79.0091H216.279V87.1985H212.225V79.0091H210.97V75.6551H212.225V75.5522C212.225 74.0707 212.657 72.939 213.521 72.1571C214.399 71.3615 215.654 70.9637 217.287 70.9637C217.616 70.9637 217.87 70.9706 218.048 70.9843V74.4205C217.938 74.4068 217.788 74.4 217.595 74.4C217.157 74.4 216.834 74.5028 216.628 74.7086C216.423 74.9007 216.306 75.2162 216.279 75.6551H218.089V79.0091ZM231.383 81.2931C231.383 81.6086 231.362 81.9241 231.321 82.2396H223.687C223.728 82.8706 223.9 83.3438 224.201 83.6593C224.517 83.9611 224.915 84.112 225.395 84.112C226.067 84.112 226.547 83.8102 226.835 83.2067H231.136C230.957 84.0023 230.608 84.7156 230.086 85.3466C229.579 85.9639 228.934 86.4509 228.152 86.8075C227.37 87.1642 226.506 87.3425 225.56 87.3425C224.421 87.3425 223.406 87.1025 222.514 86.6223C221.636 86.1422 220.944 85.4564 220.436 84.5647C219.942 83.6731 219.695 82.6237 219.695 81.4165C219.695 80.2094 219.942 79.1668 220.436 78.2889C220.93 77.3973 221.616 76.7114 222.494 76.2313C223.385 75.7511 224.407 75.5111 225.56 75.5111C226.698 75.5111 227.706 75.7443 228.584 76.2107C229.462 76.6771 230.148 77.3492 230.642 78.2272C231.136 79.0914 231.383 80.1133 231.383 81.2931ZM227.267 80.2848C227.267 79.791 227.103 79.4069 226.774 79.1325C226.444 78.8445 226.033 78.7004 225.539 78.7004C225.045 78.7004 224.64 78.8376 224.325 79.112C224.009 79.3726 223.804 79.7635 223.708 80.2848H227.267ZM244.885 81.2931C244.885 81.6086 244.865 81.9241 244.823 82.2396H237.19C237.231 82.8706 237.402 83.3438 237.704 83.6593C238.019 83.9611 238.417 84.112 238.897 84.112C239.57 84.112 240.05 83.8102 240.338 83.2067H244.638C244.46 84.0023 244.11 84.7156 243.589 85.3466C243.081 85.9639 242.437 86.4509 241.655 86.8075C240.873 87.1642 240.009 87.3425 239.062 87.3425C237.923 87.3425 236.908 87.1025 236.017 86.6223C235.139 86.1422 234.446 85.4564 233.938 84.5647C233.445 83.6731 233.198 82.6237 233.198 81.4165C233.198 80.2094 233.445 79.1668 233.938 78.2889C234.432 77.3973 235.118 76.7114 235.996 76.2313C236.888 75.7511 237.91 75.5111 239.062 75.5111C240.201 75.5111 241.209 75.7443 242.087 76.2107C242.965 76.6771 243.651 77.3492 244.144 78.2272C244.638 79.0914 244.885 80.1133 244.885 81.2931ZM240.77 80.2848C240.77 79.791 240.605 79.4069 240.276 79.1325C239.947 78.8445 239.535 78.7004 239.041 78.7004C238.548 78.7004 238.143 78.8376 237.827 79.112C237.512 79.3726 237.306 79.7635 237.21 80.2848H240.77ZM246.7 81.4165C246.7 80.2231 246.913 79.1805 247.338 78.2889C247.777 77.3973 248.374 76.7114 249.128 76.2313C249.883 75.7511 250.719 75.5111 251.639 75.5111C252.379 75.5111 253.038 75.6688 253.614 75.9843C254.204 76.2861 254.663 76.7045 254.992 77.2395V71.9719H259.046V87.1985H254.992V85.5935C254.677 86.1285 254.231 86.5538 253.655 86.8693C253.079 87.1848 252.4 87.3425 251.618 87.3425C250.699 87.3425 249.862 87.1025 249.108 86.6223C248.367 86.1422 247.777 85.4564 247.338 84.5647C246.913 83.6593 246.7 82.6099 246.7 81.4165ZM255.013 81.4165C255.013 80.6758 254.807 80.0928 254.396 79.6675C253.998 79.2423 253.504 79.0297 252.914 79.0297C252.311 79.0297 251.81 79.2423 251.412 79.6675C251.014 80.079 250.815 80.662 250.815 81.4165C250.815 82.1573 251.014 82.7471 251.412 83.1861C251.81 83.6113 252.311 83.824 252.914 83.824C253.504 83.824 253.998 83.6113 254.396 83.1861C254.807 82.7608 255.013 82.171 255.013 81.4165ZM264.122 87.3631C263.409 87.3631 262.833 87.1711 262.394 86.787C261.968 86.3891 261.756 85.8885 261.756 85.2849C261.756 84.6813 261.968 84.1806 262.394 83.7828C262.833 83.385 263.409 83.1861 264.122 83.1861C264.822 83.1861 265.384 83.385 265.809 83.7828C266.248 84.1806 266.468 84.6813 266.468 85.2849C266.468 85.8747 266.248 86.3686 265.809 86.7664C265.384 87.1642 264.822 87.3631 264.122 87.3631Z" fill="#00AAFF"/>
</svg>
