<svg width="271" height="255" viewBox="0 0 271 255" fill="none" xmlns="http://www.w3.org/2000/svg">
<path d="M185.376 232.894C183.076 232.754 181.116 234.314 180.996 236.374C180.876 238.434 182.636 240.214 184.936 240.354C187.236 240.494 189.196 238.934 189.316 236.874C189.436 234.814 187.676 233.034 185.376 232.894Z" fill="#006E4B"/>
<path d="M172.276 227.624C168.736 227.414 165.706 230.104 165.496 233.644C165.286 237.174 167.976 240.214 171.516 240.424C175.046 240.634 178.086 237.944 178.296 234.404C178.506 230.874 175.816 227.834 172.276 227.624Z" fill="#006E4B"/>
<path d="M245.966 130.464C245.966 130.464 253.916 143.434 252.366 169.504C250.816 195.574 240.746 212.134 218.846 224.754C196.946 237.364 194.936 244.344 112.906 254.064C65.4659 259.684 18.7559 222.954 13.6359 168.654C8.51594 114.364 72.0359 85.3039 132.966 99.5039C193.906 113.704 240.606 101.244 245.966 130.464Z" fill="#F09837"/>
<path d="M177.406 243.664C181.036 242.754 184.226 241.854 187.086 240.924L175.426 196.094C172.256 214.044 173.866 230.154 177.406 243.664Z" fill="#FFA852"/>
<path d="M127.096 252.304C130.726 251.834 134.166 251.364 137.436 250.904C137.436 227.084 141.196 204.114 148.146 182.894C128.906 202.584 125.036 228.884 127.096 252.294V252.304Z" fill="#FFA852"/>
<path d="M105.656 183.304C86.4756 202.934 82.5657 229.124 84.5857 252.484C87.9957 253.274 91.4656 253.844 94.9656 254.204C94.6456 229.354 98.4256 205.374 105.656 183.304Z" fill="#FFA852"/>
<path d="M47.3657 233.794C49.9857 235.994 52.7257 238.034 55.5557 239.914L58.9057 194.704C51.8957 205.584 48.6057 219.664 47.3657 233.794Z" fill="#FFA852"/>
<path d="M237.336 194.324C237.336 194.324 256.426 178.314 256.466 178.274C258.496 176.574 257.836 167.974 257.816 165.794C257.436 122.784 179.826 -5.36612 107.536 45.6039C91.5158 56.8939 56.5558 100.384 42.7158 107.034C32.4058 111.984 9.2758 134.914 8.7558 172.234C8.2258 209.544 237.336 194.314 237.336 194.314V194.324Z" fill="#418FC9"/>
<path d="M143.306 65.5039C135.206 56.5139 127.646 47.4339 120.616 38.3039C123.116 37.2639 125.606 36.4139 128.096 35.7439C133.446 42.6839 139.096 49.5939 145.066 56.4539C154.296 51.2139 163.226 46.0639 171.826 40.9739C173.866 41.9539 175.896 43.0339 177.906 44.1939C177.836 44.6639 177.766 45.1339 177.696 45.6039C166.746 52.1139 155.286 58.7439 143.306 65.5039Z" fill="#4CA7F8"/>
<path d="M128.096 35.7339C130.816 35.0039 133.526 34.4939 136.236 34.1839C139.666 38.6039 143.216 43.0139 146.906 47.4039C152.676 44.1139 158.326 40.8639 163.846 37.6339C166.536 38.5839 169.196 39.7039 171.836 40.9739C163.226 46.0639 154.306 51.2139 145.076 56.4539C139.106 49.5939 133.456 42.6839 128.106 35.7439L128.096 35.7339Z" fill="#73BFF9"/>
<path d="M136.236 34.1839C145.596 33.1039 154.856 34.4439 163.836 37.6339C158.316 40.8639 152.676 44.1139 146.896 47.4039C143.216 43.0139 139.656 38.6039 136.226 34.1839H136.236Z" fill="#95D3F9"/>
<path d="M179.986 54.9039C168.976 61.4439 157.446 68.1039 145.406 74.9039C142.526 91.4639 140.026 108.084 137.906 124.734C148.596 134.274 159.906 143.674 171.846 152.924C184.396 145.814 196.436 138.884 207.966 132.104C207.806 116.044 208.026 99.9739 208.606 83.8839C198.436 74.3339 188.896 64.6639 179.996 54.9039H179.986ZM178.866 63.8239C186.376 71.7739 194.306 79.6639 202.666 87.4739C202.076 100.664 201.726 113.844 201.626 127.024C192.166 132.574 182.356 138.224 172.206 143.984C162.666 136.374 153.546 128.664 144.846 120.864C146.466 107.294 148.346 93.7539 150.476 80.2339C160.286 74.6739 169.746 69.2039 178.866 63.8239Z" fill="#4CA7F8"/>
<path d="M178.866 63.8239C169.746 69.2039 160.286 74.6739 150.476 80.2339C148.346 93.7439 146.476 107.294 144.846 120.864C153.546 128.664 162.666 136.374 172.206 143.984C182.356 138.224 192.156 132.564 201.626 127.024C201.726 113.844 202.076 100.664 202.666 87.4739C194.316 79.6639 186.376 71.7739 178.866 63.8239ZM177.826 72.7439C183.836 78.9039 190.106 85.0139 196.626 91.0839C196.076 101.364 195.676 111.634 195.416 121.904C188.036 126.224 180.446 130.594 172.646 135.034C165.406 129.084 158.426 123.074 151.696 117.014C152.866 106.514 154.196 96.0139 155.676 85.5339C163.266 81.2139 170.656 76.9439 177.826 72.7339V72.7439Z" fill="#73BFF9"/>
<path d="M196.626 91.0739C196.076 101.354 195.676 111.624 195.416 121.894C188.036 126.214 180.446 130.584 172.646 135.024C165.406 129.074 158.426 123.064 151.696 117.004C152.866 106.504 154.196 96.0039 155.676 85.5239C163.266 81.2039 170.656 76.9339 177.826 72.7239C183.836 78.8839 190.106 84.9939 196.626 91.0639V91.0739Z" fill="#95D3F9"/>
<path d="M137.156 73.7539C133.986 90.3839 131.186 107.064 128.766 123.804C115.796 130.964 102.316 138.294 88.3259 145.824C77.5059 136.244 67.3259 126.524 57.7659 116.684C60.5159 106.514 63.3958 96.3939 66.4158 86.3039C69.4158 83.2239 72.4859 79.9939 75.5659 76.7539C72.0259 88.6439 68.6759 100.594 65.5059 112.594C73.2859 120.634 81.4858 128.604 90.1058 136.474C101.426 130.374 112.416 124.404 123.066 118.554C125.266 104.834 127.726 91.1539 130.436 77.5039C123.016 69.4939 116.016 61.4239 109.436 53.2839C101.746 57.4739 93.8758 61.7139 85.8058 66.0039C92.4458 59.0939 98.7059 52.8139 103.766 48.5539C106.526 47.0639 109.266 45.5739 111.966 44.0939C119.726 54.0639 128.126 63.9539 137.156 73.7439V73.7539Z" fill="#4CA7F8"/>
<path d="M109.426 53.2939C101.736 57.4839 93.8658 61.7239 85.7958 66.0139C82.4458 69.4939 79.0059 73.1339 75.5659 76.7539C72.0259 88.6439 68.6759 100.594 65.5059 112.594C73.2859 120.634 81.4858 128.604 90.1058 136.474C101.426 130.374 112.416 124.404 123.066 118.554C125.266 104.834 127.726 91.1539 130.436 77.5039C123.016 69.4939 116.016 61.4239 109.436 53.2839L109.426 53.2939ZM82.0358 75.8939C90.5558 71.3639 98.8658 66.9039 106.966 62.5039C112.256 68.8039 117.796 75.0739 123.596 81.2939C121.396 91.9339 119.356 102.594 117.466 113.284C109.166 117.834 100.656 122.454 91.9459 127.144C85.4259 120.994 79.1559 114.804 73.1459 108.554C75.9559 97.6239 78.9158 86.7339 82.0458 75.8939H82.0358Z" fill="#73BFF9"/>
<path d="M123.596 81.2939C121.396 91.9339 119.356 102.594 117.466 113.284C109.166 117.834 100.656 122.454 91.9457 127.144C85.4257 120.994 79.1558 114.804 73.1458 108.554C75.9558 97.6239 78.9157 86.7339 82.0457 75.8939C90.5657 71.3639 98.8757 66.9039 106.976 62.5039C112.266 68.8039 117.806 75.0739 123.606 81.2939H123.596Z" fill="#95D3F9"/>
<path d="M131.876 132.654C142.746 142.164 154.246 151.534 166.366 160.754C165.896 172.894 165.626 185.034 165.556 197.164C163.156 197.204 160.736 197.244 158.286 197.284C158.476 186.424 158.826 175.564 159.336 164.704C149.386 157.174 139.846 149.534 130.736 141.804C119.976 147.744 108.876 153.804 97.4359 160.004C95.5759 172.084 93.9059 184.194 92.4259 196.324C89.9459 196.194 87.4959 196.064 85.0659 195.914C86.8959 182.174 88.9659 168.474 91.2859 154.814C105.316 147.234 118.856 139.864 131.876 132.664V132.654Z" fill="#4CA7F8"/>
<path d="M130.736 141.794C139.846 149.524 149.386 157.164 159.336 164.694C158.826 175.554 158.476 186.414 158.286 197.274C155.876 197.304 153.446 197.334 150.996 197.354C151.276 187.794 151.676 178.244 152.206 168.694C144.446 162.844 136.926 156.924 129.666 150.954C121.216 155.614 112.566 160.344 103.706 165.164C102.256 175.644 100.946 186.144 99.7858 196.664C97.3158 196.564 94.8558 196.454 92.4158 196.334C93.8958 184.204 95.5658 172.094 97.4258 160.014C108.866 153.814 119.966 147.754 130.726 141.814L130.736 141.794Z" fill="#73BFF9"/>
<path d="M129.676 150.944C136.936 156.924 144.446 162.834 152.216 168.684C151.686 178.234 151.286 187.794 151.006 197.344C134.276 197.484 116.686 197.324 99.8057 196.644C100.966 186.134 102.266 175.634 103.726 165.144C112.586 160.334 121.236 155.594 129.686 150.934L129.676 150.944Z" fill="#95D3F9"/>
<g style="mix-blend-mode:multiply" opacity="0.74">
<path d="M218.916 130.084C218.446 114.114 218.346 98.1239 218.616 82.1039C218.816 81.9739 219.016 81.8539 219.216 81.7339C220.946 83.9339 222.636 86.1639 224.276 88.4239C224.296 101.114 224.546 113.784 225.036 126.434C234.596 134.004 244.586 141.484 254.986 148.854C254.986 148.854 254.986 148.854 254.996 148.854C255.786 151.674 256.416 154.364 256.876 156.884C256.596 157.054 256.306 157.224 256.026 157.404C243.026 148.464 230.666 139.344 218.916 130.094V130.084Z" fill="#848413"/>
</g>
<path d="M225.026 126.424C224.536 113.774 224.286 101.104 224.266 88.4139C226.296 91.2139 228.256 94.0439 230.136 96.8939C230.326 105.534 230.626 114.164 231.036 122.784C237.686 128.074 244.546 133.324 251.606 138.514C252.936 142.094 254.066 145.544 254.986 148.824C254.986 148.824 254.986 148.824 254.976 148.824C244.576 141.454 234.586 133.974 225.026 126.404V126.424Z" fill="#CEC23C"/>
<path d="M230.146 96.9039C239.436 111.014 246.826 125.614 251.616 138.534C244.556 133.344 237.696 128.094 231.046 122.804C230.636 114.184 230.336 105.554 230.146 96.9139V96.9039Z" fill="#D9D268"/>
<path d="M214.236 138.114C226.176 147.324 238.746 156.394 251.936 165.294C252.566 170.344 253.226 175.384 253.926 180.414C252.306 181.784 250.076 183.644 247.776 185.574C247.046 180.054 246.366 174.524 245.726 168.994C234.906 161.724 224.496 154.344 214.506 146.864C204.986 152.454 195.126 158.144 184.926 163.954C184.896 174.874 185.026 185.784 185.326 196.694C182.966 196.764 180.556 196.834 178.106 196.894C177.906 184.254 177.936 171.604 178.186 158.944C190.706 151.834 202.716 144.894 214.226 138.114H214.236Z" fill="#4CA7F8"/>
<path d="M214.516 146.854C224.506 154.334 234.916 161.714 245.736 168.984C246.376 174.524 247.056 180.044 247.786 185.564C245.606 187.394 243.356 189.274 241.516 190.824C240.766 184.794 240.076 178.754 239.436 172.714C230.996 167.074 222.806 161.364 214.876 155.594C207.386 159.964 199.696 164.404 191.796 168.924C191.926 178.104 192.166 187.284 192.536 196.454C190.196 196.534 187.796 196.614 185.346 196.684C185.046 185.784 184.906 174.864 184.946 163.944C195.146 158.134 205.006 152.444 214.526 146.854H214.516Z" fill="#73BFF9"/>
<path d="M214.866 155.594C222.806 161.364 230.986 167.074 239.426 172.714C240.066 178.764 240.756 184.794 241.506 190.824C239.076 192.854 237.336 194.314 237.336 194.314C237.336 194.314 218.916 195.534 192.526 196.444C192.156 187.274 191.916 178.094 191.786 168.914C199.686 164.404 207.376 159.964 214.866 155.584V155.594Z" fill="#95D3F9"/>
<path d="M19.5459 131.674C22.3359 126.734 25.4359 122.464 28.5159 118.914C32.6359 116.774 36.7159 114.654 40.7559 112.554C41.2959 110.774 41.8359 108.994 42.3859 107.214C42.4959 107.154 42.6159 107.104 42.7259 107.044C44.9259 105.984 47.6659 103.994 50.7759 101.344C49.1059 106.874 47.4659 112.404 45.8759 117.964C37.2759 122.464 28.5059 127.034 19.5459 131.674Z" fill="#4CA7F8"/>
<path d="M28.5059 118.904C33.6359 112.984 38.7459 109.034 42.3759 107.204C41.8259 108.984 41.2858 110.764 40.7458 112.544C36.7058 114.654 32.6259 116.774 28.5059 118.904Z" fill="#73BFF9"/>
<path d="M78.8157 156.764C76.4457 169.464 74.2757 182.194 72.3257 194.964C69.8357 194.754 67.3957 194.514 64.9957 194.274C66.8257 183.144 68.8057 172.044 70.9557 160.974C61.8757 153.164 53.2057 145.254 44.9657 137.254C33.8157 143.114 22.3758 149.094 10.6458 155.204C11.3658 151.824 12.2657 148.604 13.3057 145.554C25.0057 139.474 36.4057 133.524 47.5157 127.694C57.3157 137.514 67.7457 147.214 78.8057 156.764H78.8157Z" fill="#4CA7F8"/>
<path d="M70.9557 160.974C68.8057 172.044 66.8257 183.144 64.9957 194.274C62.5057 194.014 60.0657 193.734 57.6857 193.444C59.3457 184.014 61.1157 174.614 62.9957 165.224C55.9057 159.154 49.0757 153.024 42.4857 146.834C33.0757 151.784 23.4657 156.824 13.6457 161.954C12.3157 166.774 11.0157 171.604 9.74571 176.444C9.06571 175.124 8.72571 173.724 8.74571 172.234C8.83571 166.174 9.51572 160.494 10.6357 155.204C22.3657 149.094 33.8057 143.114 44.9557 137.254C53.1957 145.254 61.8657 153.164 70.9457 160.974H70.9557Z" fill="#73BFF9"/>
<path d="M42.4958 146.834C49.0759 153.024 55.9159 159.154 63.0059 165.224C61.1259 174.604 59.3559 184.014 57.6959 193.444C32.8259 190.344 14.1759 185.074 9.75586 176.454C11.0259 171.614 12.3258 166.784 13.6558 161.964C23.4758 156.834 33.0858 151.794 42.4958 146.844V146.834Z" fill="#95D3F9"/>
<path d="M16.5058 133.974C-18.7142 188.394 50.0958 218.294 130.716 204.734C196.836 194.174 239.226 205.204 248.756 184.934C248.826 184.694 239.116 114.554 227.846 82.4439C254.366 107.184 284.756 166.254 262.466 190.474C243.336 211.264 184.366 209.114 129.136 218.304C32.3858 234.894 -29.6542 185.744 16.5158 133.974H16.5058Z" fill="#4CA7F8"/>
<path d="M25.0759 123.184C-10.1441 177.604 49.7159 204.454 130.336 190.894C196.456 180.334 238.846 198.814 248.376 178.544C248.446 178.304 259.566 156.454 245.496 124.114C263.596 145.634 267.356 167.494 255.746 183.614C239.226 206.534 187.426 196.564 132.186 205.754C35.4359 222.344 -26.5641 179.234 25.0659 123.204L25.0759 123.184Z" fill="#95D3F9"/>
<path d="M230.146 89.3339C230.146 89.3339 225.826 80.4739 211.936 92.6839C189.476 112.434 205.256 196.784 213.536 205.054C221.806 213.324 256.376 199.714 260.646 192.574C264.926 185.434 270.246 177.584 262.306 148.844C254.356 120.104 230.156 89.3239 230.156 89.3239L230.146 89.3339Z" fill="#112416"/>
<path d="M203.056 198.014C206.416 196.954 209.206 198.134 212.716 197.894C212.176 196.474 201.136 183.544 200.386 132.654C200.086 107.764 206.016 67.8739 224.266 86.4939C229.536 91.8439 225.986 73.5739 212.686 75.3339C191.366 80.4539 176.626 150.214 200.906 198.884C201.606 198.564 202.316 198.244 203.056 198.004V198.014Z" fill="#95D3F9"/>
<path d="M232.646 92.6639C214.396 74.0439 202.366 113.224 202.656 138.114C203.286 181.044 208.196 190.104 213.426 196.424C216.306 199.914 219.256 202.984 223.096 205.384C224.156 206.044 226.006 206.454 225.856 206.734C225.586 207.254 222.136 207.304 220.016 207.644C188.086 212.644 189.906 85.7039 217.476 79.0839C230.766 77.3239 237.916 98.0139 232.646 92.6639Z" fill="#4CA7F8"/>
<path d="M262.466 190.474C250.396 208.184 209.066 210.574 178.656 213.524C138.276 217.444 45.7458 239.154 9.18576 193.784C-1.57424 180.584 -3.18427 165.144 5.96573 148.184C8.75573 143.224 12.3958 138.504 16.5158 133.974C12.7258 138.614 9.38573 143.404 6.84573 148.364C-0.634266 163.814 -0.00423431 179.364 11.5658 192.834C48.7158 235.894 132.646 215.324 178.446 211.734C214.706 208.744 249.986 206.704 262.476 190.484L262.466 190.474Z" fill="#102B38"/>
<path d="M265.786 158.894C265.786 174.604 256.626 187.344 245.326 187.344C234.026 187.344 224.866 174.604 224.866 158.894C224.866 143.184 234.026 130.434 245.326 130.434C256.626 130.434 265.786 143.174 265.786 158.894Z" fill="#4CA7F8"/>
<path d="M264.686 156.904C264.686 170.494 256.806 181.504 247.086 181.504C237.366 181.504 229.486 170.484 229.486 156.904C229.486 143.324 237.366 132.304 247.086 132.304C256.806 132.304 264.686 143.324 264.686 156.904Z" fill="#EBE6D5"/>
<path d="M262.756 156.684C262.756 165.844 257.796 173.274 251.676 173.274C245.556 173.274 240.596 165.844 240.596 156.684C240.596 147.524 245.556 140.094 251.676 140.094C257.796 140.094 262.756 147.524 262.756 156.684Z" fill="#001D0E"/>
<path opacity="0.64" d="M249.446 153.024C249.446 157.314 246.606 160.784 243.096 160.784C239.586 160.784 236.746 157.304 236.746 153.024C236.746 148.744 239.586 145.264 243.096 145.264C246.606 145.264 249.446 148.744 249.446 153.024Z" fill="white"/>
<path d="M243.576 162.464C243.576 178.174 234.416 190.924 223.116 190.924C211.816 190.924 202.656 178.184 202.656 162.464C202.656 146.744 211.816 134.014 223.116 134.014C234.416 134.014 243.576 146.754 243.576 162.464Z" fill="#4CA7F8"/>
<path d="M242.476 160.474C242.476 174.064 234.596 185.074 224.876 185.074C215.156 185.074 207.276 174.054 207.276 160.474C207.276 146.894 215.156 135.874 224.876 135.874C234.596 135.874 242.476 146.884 242.476 160.474Z" fill="#EBE6D5"/>
<path d="M240.546 160.264C240.546 169.424 235.586 176.854 229.466 176.854C223.346 176.854 218.386 169.424 218.386 160.264C218.386 151.104 223.346 143.674 229.466 143.674C235.586 143.674 240.546 151.104 240.546 160.264Z" fill="#001D0E"/>
<path opacity="0.64" d="M227.236 156.594C227.236 160.884 224.396 164.354 220.886 164.354C217.376 164.354 214.536 160.874 214.536 156.594C214.536 152.314 217.376 148.834 220.886 148.834C224.396 148.834 227.236 152.314 227.236 156.594Z" fill="white"/>
<path d="M127.046 0.183895C99.1458 11.1039 76.0058 29.4239 59.0058 54.1039C57.1758 56.7639 61.5058 59.2639 63.3258 56.6239C79.5058 33.1139 101.796 15.4139 128.376 5.00389C131.336 3.84389 130.046 -0.996105 127.046 0.183895Z" fill="#4CA7F8"/>
<path d="M64.2857 9.96389C45.3157 27.5439 31.4658 49.0139 23.1458 73.5039C22.1058 76.5539 26.9357 77.8639 27.9657 74.8339C36.0157 51.1439 49.4758 30.5039 67.8258 13.5039C70.1958 11.3139 66.6457 7.78389 64.2857 9.96389Z" fill="#4CA7F8"/>
</svg>
